# Blender 4.4.0
# www.blender.org
mtllib banner_stand.mtl
o banner_stand
v 0.030000 3.680000 0.100001
v 0.030000 3.680000 -0.099999
v 0.030000 -0.020000 -0.100000
v 0.030000 -0.020000 0.100000
v 0.230000 3.680000 -0.099999
v 0.230000 -0.020000 -0.100000
v 0.230000 3.680000 0.100001
v 0.230000 -0.020000 0.100000
v 0.047582 3.878225 0.900001
v 0.047582 3.878225 -0.899999
v 0.047582 3.678225 -0.899999
v 0.047582 3.678225 0.900001
v 0.247582 3.878225 -0.899999
v 0.247582 3.678225 -0.899999
v 0.247582 3.878225 0.900001
v 0.247582 3.678225 0.900001
vn -1.0000 -0.0000 -0.0000
vn -0.0000 -0.0000 -1.0000
vn -0.0000 -0.0000 1.0000
vn -0.0000 -1.0000 -0.0000
vn -0.0000 1.0000 -0.0000
vn 1.0000 -0.0000 -0.0000
vt 0.812500 0.968750
vt 0.781250 0.968750
vt 0.781250 0.312500
vt 0.812500 0.312500
vt 0.750000 0.968750
vt 0.750000 0.312500
vt 0.718750 0.968750
vt 0.687500 0.968750
vt 0.687500 0.312500
vt 0.718750 0.312500
vt 0.781250 1.000000
vt 0.750000 1.000000
vt 0.375000 0.281250
vt 0.687500 0.281250
vt 0.375000 0.312500
vt 0.343750 0.281250
vt 0.343750 0.312500
vt 0.000000 0.281250
vt 0.031250 0.281250
vt 0.031250 0.312500
vt -0.000000 0.312500
vt 0.656250 0.312500
vt 0.656250 0.343750
vt 0.343750 0.343750
vt 0.031250 0.343750
vt 0.718750 1.000000
s 1
usemtl banner_stand
f 1/1/1 2/2/1 3/3/1 4/4/1
f 2/2/2 5/5/2 6/6/2 3/3/2
f 7/7/3 1/8/3 4/9/3 8/10/3
f 4/2/4 3/11/4 6/12/4 8/5/4
f 9/13/1 10/14/1 11/9/1 12/15/1
f 10/16/2 13/13/2 14/15/2 11/17/2
f 15/18/3 9/19/3 12/20/3 16/21/3
f 12/17/4 11/22/4 14/23/4 16/24/4
f 15/20/5 13/17/5 10/24/5 9/25/5
f 5/5/6 7/7/6 8/10/6 6/6/6
f 15/19/6 16/20/6 14/17/6 13/16/6
f 5/5/5 2/12/5 1/26/5 7/7/5
