# Blender 4.4.0
# www.blender.org
mtllib banner_main.mtl
o banner_main
v 0.253119 3.877542 0.912565
v 0.253119 3.877542 -0.887435
v 0.253119 0.277542 -0.887436
v 0.253119 0.277542 0.912564
v 0.327945 3.877542 -0.887435
v 0.327945 0.277542 -0.887436
v 0.327945 3.877542 0.912565
v 0.327945 0.277542 0.912564
vn -1.0000 -0.0000 -0.0000
vn -0.0000 -0.0000 -1.0000
vn 1.0000 -0.0000 -0.0000
vn -0.0000 -0.0000 1.0000
vn -0.0000 -1.0000 -0.0000
vn -0.0000 1.0000 -0.0000
vt 0.656250 0.984375
vt 0.343750 0.984375
vt 0.343750 0.359375
vt 0.656250 0.359375
vt 0.328125 0.984375
vt 0.328125 0.359375
vt 0.015625 0.984375
vt 0.015625 0.359375
vt -0.000000 0.984375
vt 0.000000 0.359375
vt 0.640625 0.984375
vt 0.640625 1.000000
vt 0.328125 1.000000
vt 0.015625 1.000000
s 1
usemtl banner_main
f 1/1/1 2/2/1 3/3/1 4/4/1
f 2/2/2 5/5/2 6/6/2 3/3/2
f 5/5/3 7/7/3 8/8/3 6/6/3
f 7/7/4 1/9/4 4/10/4 8/8/4
f 4/5/5 3/11/5 6/12/5 8/13/5
f 7/7/6 5/5/6 2/13/6 1/14/6
